<?xml version="1.0" encoding="utf-8"?>
<!-- Generator: Adobe Illustrator 14.0.0, SVG Export Plug-In . SVG Version: 6.00 Build 43363)  -->
<!DOCTYPE svg PUBLIC "-//W3C//DTD SVG 1.1//EN" "http://www.w3.org/Graphics/SVG/1.1/DTD/svg11.dtd">
<svg version="1.1" id="Layer_1" xmlns="http://www.w3.org/2000/svg" xmlns:xlink="http://www.w3.org/1999/xlink" x="0px" y="0px"
	 width="23.75px" height="26.417px" viewBox="0 0 23.75 26.417" enable-background="new 0 0 23.75 26.417" xml:space="preserve">
<linearGradient id="SVGID_1_" gradientUnits="userSpaceOnUse" x1="220.7546" y1="-124.6602" x2="220.7546" y2="-148.6602" gradientTransform="matrix(1 0 0 -1 -211.2554 -124.6602)">
	<stop  offset="0" style="stop-color:#95BFF8"/>
	<stop  offset="0.5569" style="stop-color:#84ADEF"/>
	<stop  offset="1" style="stop-color:#7CA4EB"/>
</linearGradient>
<polygon fill="url(#SVGID_1_)" points="11.5,0 0,0 0,24 19,24 19,7.9 "/>
<linearGradient id="SVGID_2_" gradientUnits="userSpaceOnUse" x1="220.7546" y1="-125.6602" x2="220.7546" y2="-147.6602" gradientTransform="matrix(1 0 0 -1 -211.2554 -124.6602)">
	<stop  offset="0" style="stop-color:#E7F4FC"/>
	<stop  offset="1" style="stop-color:#DEEFFC"/>
</linearGradient>
<polygon fill="url(#SVGID_2_)" points="1,23 1,1 11.1,1 18,8.3 18,23 "/>
<linearGradient id="SVGID_3_" gradientUnits="userSpaceOnUse" x1="220.7019" y1="-126.6602" x2="220.7019" y2="-146.6602" gradientTransform="matrix(1 0 0 -1 -211.2554 -124.6602)">
	<stop  offset="0" style="stop-color:#CEE9F9"/>
	<stop  offset="1" style="stop-color:#BBDFF8"/>
</linearGradient>
<polygon fill="url(#SVGID_3_)" points="1.947,22 1.947,2 10.548,2 16.947,8.7 16.947,22 "/>
<line fill="none" stroke="#FFFFFF" x1="3.219" y1="19.375" x2="15.674" y2="19.375"/>
<line fill="none" stroke="#FFFFFF" x1="3.219" y1="15.917" x2="15.674" y2="15.917"/>
<line fill="none" stroke="#FFFFFF" x1="3.219" y1="12.208" x2="15.674" y2="12.208"/>
<line fill="none" stroke="#FFFFFF" x1="3.219" y1="8.75" x2="15.674" y2="8.75"/>
<linearGradient id="SVGID_4_" gradientUnits="userSpaceOnUse" x1="225.5046" y1="-124.6602" x2="225.5046" y2="-134.0191" gradientTransform="matrix(1 0 0 -1 -211.2554 -124.6602)">
	<stop  offset="0" style="stop-color:#95BFF8"/>
	<stop  offset="0.5569" style="stop-color:#84ADEF"/>
	<stop  offset="1" style="stop-color:#7CA4EB"/>
</linearGradient>
<path fill="url(#SVGID_4_)" d="M10,9c0,0,5.2-1.5,9,0.4c0-0.1,0-1.5,0-1.5L11.5,0c0,0-1.8,0-2,0C12.1,3.7,10,9,10,9z"/>
<linearGradient id="SVGID_5_" gradientUnits="userSpaceOnUse" x1="222.6189" y1="-132.2451" x2="225.747" y2="-129.117" gradientTransform="matrix(1 0 0 -1 -211.2554 -124.6602)">
	<stop  offset="0" style="stop-color:#E7F4FC"/>
	<stop  offset="0.5181" style="stop-color:#E5F3FC"/>
	<stop  offset="0.7045" style="stop-color:#DEF0FB"/>
	<stop  offset="0.8371" style="stop-color:#D3EBFA"/>
	<stop  offset="0.872" style="stop-color:#CEE9F9"/>
	<stop  offset="1" style="stop-color:#BDD8F0"/>
</linearGradient>
<path fill="url(#SVGID_5_)" d="M17.5,7.8c-0.899-0.2-2-0.3-3.1-0.3c-1.101,0-2.101,0.1-3,0.3c0.399-1.6,0.7-4.1-0.2-6.4L17.5,7.8z"
	/>
<g>
	
		<linearGradient id="SVGID_6_" gradientUnits="userSpaceOnUse" x1="225.5046" y1="-127.0771" x2="225.5046" y2="-151.0771" gradientTransform="matrix(1 0 0 -1 -211.2554 -124.6602)">
		<stop  offset="0" style="stop-color:#95BFF8"/>
		<stop  offset="0.5569" style="stop-color:#84ADEF"/>
		<stop  offset="1" style="stop-color:#7CA4EB"/>
	</linearGradient>
	<polygon fill="url(#SVGID_6_)" points="16.25,2.417 4.75,2.417 4.75,26.417 23.75,26.417 23.75,10.317 	"/>
	
		<linearGradient id="SVGID_7_" gradientUnits="userSpaceOnUse" x1="225.5046" y1="-128.0771" x2="225.5046" y2="-150.0771" gradientTransform="matrix(1 0 0 -1 -211.2554 -124.6602)">
		<stop  offset="0" style="stop-color:#E7F4FC"/>
		<stop  offset="1" style="stop-color:#DEEFFC"/>
	</linearGradient>
	<polygon fill="url(#SVGID_7_)" points="5.75,25.417 5.75,3.417 15.85,3.417 22.75,10.717 22.75,25.417 	"/>
	
		<linearGradient id="SVGID_8_" gradientUnits="userSpaceOnUse" x1="225.4519" y1="-129.0771" x2="225.4519" y2="-149.0771" gradientTransform="matrix(1 0 0 -1 -211.2554 -124.6602)">
		<stop  offset="0" style="stop-color:#CEE9F9"/>
		<stop  offset="1" style="stop-color:#BBDFF8"/>
	</linearGradient>
	<polygon fill="url(#SVGID_8_)" points="6.697,24.417 6.697,4.417 15.298,4.417 21.697,11.117 21.697,24.417 	"/>
	<line fill="none" stroke="#FFFFFF" x1="7.969" y1="21.792" x2="20.424" y2="21.792"/>
	<line fill="none" stroke="#FFFFFF" x1="7.969" y1="18.334" x2="20.424" y2="18.334"/>
	<line fill="none" stroke="#FFFFFF" x1="7.969" y1="14.625" x2="20.424" y2="14.625"/>
	<line fill="none" stroke="#FFFFFF" x1="7.969" y1="11.167" x2="20.424" y2="11.167"/>
	
		<linearGradient id="SVGID_9_" gradientUnits="userSpaceOnUse" x1="230.2546" y1="-127.0771" x2="230.2546" y2="-136.4366" gradientTransform="matrix(1 0 0 -1 -211.2554 -124.6602)">
		<stop  offset="0" style="stop-color:#95BFF8"/>
		<stop  offset="0.5569" style="stop-color:#84ADEF"/>
		<stop  offset="1" style="stop-color:#7CA4EB"/>
	</linearGradient>
	<path fill="url(#SVGID_9_)" d="M14.75,11.417c0,0,5.2-1.5,9,0.4c0-0.101,0-1.5,0-1.5l-7.5-7.9c0,0-1.8,0-2,0
		C16.85,6.117,14.75,11.417,14.75,11.417z"/>
	
		<linearGradient id="SVGID_10_" gradientUnits="userSpaceOnUse" x1="227.3689" y1="-134.6621" x2="230.497" y2="-131.534" gradientTransform="matrix(1 0 0 -1 -211.2554 -124.6602)">
		<stop  offset="0" style="stop-color:#E7F4FC"/>
		<stop  offset="0.5181" style="stop-color:#E5F3FC"/>
		<stop  offset="0.7045" style="stop-color:#DEF0FB"/>
		<stop  offset="0.8371" style="stop-color:#D3EBFA"/>
		<stop  offset="0.872" style="stop-color:#CEE9F9"/>
		<stop  offset="1" style="stop-color:#BDD8F0"/>
	</linearGradient>
	<path fill="url(#SVGID_10_)" d="M22.25,10.217c-0.899-0.2-2-0.3-3.1-0.3c-1.101,0-2.101,0.1-3,0.3c0.399-1.6,0.7-4.1-0.2-6.4
		L22.25,10.217z"/>
</g>
</svg>
